<svg width="100" height="100" viewBox="0 0 100 100" fill="none" xmlns="http://www.w3.org/2000/svg">
<g filter="url(#filter0_i_14_21)">
<rect width="100" height="100" rx="8" fill="#25252D"/>
<rect x="6" y="6" width="88" height="88" rx="6" fill="#D9D9D9"/>
<g clip-path="url(#clip0_14_21)" filter="url(#filter1_bi_14_21)">
<g filter="url(#filter2_b_14_21)">
<path d="M6 12C6 8.68629 8.68629 6 12 6H88C91.3137 6 94 8.68629 94 12V50H6V12Z" fill="#343643"/>
<path d="M6 12C6 8.68629 8.68629 6 12 6H88C91.3137 6 94 8.68629 94 12V50H6V12Z" fill="#343643"/>
<path d="M6 12C6 8.68629 8.68629 6 12 6H88C91.3137 6 94 8.68629 94 12V50H6V12Z" fill="#333541" fill-opacity="0.71"/>
<path d="M6 47H94V88C94 91.3137 91.3137 94 88 94H12C8.68629 94 6 91.3137 6 88V47Z" fill="#343643"/>
<path d="M6 47H94V88C94 91.3137 91.3137 94 88 94H12C8.68629 94 6 91.3137 6 88V47Z" fill="#343643"/>
<path d="M6 47H94V88C94 91.3137 91.3137 94 88 94H12C8.68629 94 6 91.3137 6 88V47Z" fill="#282833" fill-opacity="0.71"/>
</g>
<g filter="url(#filter3_f_14_21)">
<ellipse cx="50.5" cy="-6" rx="33.5" ry="37" fill="#464765"/>
</g>
</g>
<g filter="url(#filter4_d_14_21)">
<rect x="28.9746" y="65.9066" width="53.6079" height="7.4" rx="3.7" transform="rotate(-45 28.9746 65.9066)" fill="url(#paint0_linear_14_21)"/>
<rect x="33.2327" y="28" width="53.6079" height="7.4" rx="3.7" transform="rotate(45 33.2327 28)" fill="url(#paint1_linear_14_21)"/>
</g>
</g>
<defs>
<filter id="filter0_i_14_21" x="0" y="0" width="100" height="104" filterUnits="userSpaceOnUse" color-interpolation-filters="sRGB">
<feFlood flood-opacity="0" result="BackgroundImageFix"/>
<feBlend mode="normal" in="SourceGraphic" in2="BackgroundImageFix" result="shape"/>
<feColorMatrix in="SourceAlpha" type="matrix" values="0 0 0 0 0 0 0 0 0 0 0 0 0 0 0 0 0 0 127 0" result="hardAlpha"/>
<feOffset dy="4"/>
<feGaussianBlur stdDeviation="2"/>
<feComposite in2="hardAlpha" operator="arithmetic" k2="-1" k3="1"/>
<feColorMatrix type="matrix" values="0 0 0 0 0 0 0 0 0 0 0 0 0 0 0 0 0 0 0.25 0"/>
<feBlend mode="normal" in2="shape" result="effect1_innerShadow_14_21"/>
</filter>
<filter id="filter1_bi_14_21" x="-94" y="-94" width="288" height="288" filterUnits="userSpaceOnUse" color-interpolation-filters="sRGB">
<feFlood flood-opacity="0" result="BackgroundImageFix"/>
<feGaussianBlur in="BackgroundImageFix" stdDeviation="50"/>
<feComposite in2="SourceAlpha" operator="in" result="effect1_backgroundBlur_14_21"/>
<feBlend mode="normal" in="SourceGraphic" in2="effect1_backgroundBlur_14_21" result="shape"/>
<feColorMatrix in="SourceAlpha" type="matrix" values="0 0 0 0 0 0 0 0 0 0 0 0 0 0 0 0 0 0 127 0" result="hardAlpha"/>
<feOffset dy="1"/>
<feComposite in2="hardAlpha" operator="arithmetic" k2="-1" k3="1"/>
<feColorMatrix type="matrix" values="0 0 0 0 1 0 0 0 0 1 0 0 0 0 1 0 0 0 0.45 0"/>
<feBlend mode="normal" in2="shape" result="effect2_innerShadow_14_21"/>
</filter>
<filter id="filter2_b_14_21" x="-195" y="-195" width="490" height="490" filterUnits="userSpaceOnUse" color-interpolation-filters="sRGB">
<feFlood flood-opacity="0" result="BackgroundImageFix"/>
<feGaussianBlur in="BackgroundImageFix" stdDeviation="100.5"/>
<feComposite in2="SourceAlpha" operator="in" result="effect1_backgroundBlur_14_21"/>
<feBlend mode="normal" in="SourceGraphic" in2="effect1_backgroundBlur_14_21" result="shape"/>
</filter>
<filter id="filter3_f_14_21" x="-5" y="-65" width="111" height="118" filterUnits="userSpaceOnUse" color-interpolation-filters="sRGB">
<feFlood flood-opacity="0" result="BackgroundImageFix"/>
<feBlend mode="normal" in="SourceGraphic" in2="BackgroundImageFix" result="shape"/>
<feGaussianBlur stdDeviation="11" result="effect1_foregroundBlur_14_21"/>
</filter>
<filter id="filter4_d_14_21" x="26.5327" y="29.5326" width="47.0483" height="46.074" filterUnits="userSpaceOnUse" color-interpolation-filters="sRGB">
<feFlood flood-opacity="0" result="BackgroundImageFix"/>
<feColorMatrix in="SourceAlpha" type="matrix" values="0 0 0 0 0 0 0 0 0 0 0 0 0 0 0 0 0 0 127 0" result="hardAlpha"/>
<feOffset dy="3"/>
<feGaussianBlur stdDeviation="1.5"/>
<feComposite in2="hardAlpha" operator="out"/>
<feColorMatrix type="matrix" values="0 0 0 0 0.0509804 0 0 0 0 0.129412 0 0 0 0 0.133333 0 0 0 1 0"/>
<feBlend mode="normal" in2="BackgroundImageFix" result="effect1_dropShadow_14_21"/>
<feBlend mode="normal" in="SourceGraphic" in2="effect1_dropShadow_14_21" result="shape"/>
</filter>
<linearGradient id="paint0_linear_14_21" x1="28.9746" y1="69.6066" x2="82.5825" y2="69.6066" gradientUnits="userSpaceOnUse">
<stop stop-color="#39B387"/>
<stop offset="0.48" stop-color="#24C182"/>
<stop offset="1" stop-color="#2BBC85"/>
</linearGradient>
<linearGradient id="paint1_linear_14_21" x1="33.2327" y1="31.7" x2="86.8406" y2="31.7" gradientUnits="userSpaceOnUse">
<stop stop-color="#39B387"/>
<stop offset="0.48" stop-color="#24C182"/>
<stop offset="1" stop-color="#2BBC85"/>
</linearGradient>
<clipPath id="clip0_14_21">
<rect width="88" height="88" fill="white" transform="translate(6 6)"/>
</clipPath>
</defs>
</svg>
